Coordinates
version=1
nRows=21
nColumns=12
inDegrees=yes

Units are S.I. units (second, meters, Newtons, ...)
Angles are in degrees

endheader
time	SC_y	SC_z	SC_x	AC_y	AC_z	AC_x	GH_y	GH_z	GH_yy	EL_x	PS_y
       0.0              -46.24          9.802          71.34          67.14         -4.136         -16.79          39.02         -13.32          24.31          115.7          141.7
  0.003946              -46.24          9.801          71.33          67.13         -4.138         -16.79          39.03         -13.31          24.32          115.7          141.7
  0.007891              -46.24            9.8          71.33          67.13         -4.141         -16.79          39.03          -13.3          24.32          115.7          141.7
   0.01184              -46.24          9.799          71.32          67.12         -4.143         -16.79          39.04         -13.29          24.33          115.7          141.7
   0.01578              -46.24          9.798          71.32          67.12         -4.146         -16.78          39.05         -13.28          24.33          115.7          141.7
   0.01973              -46.24          9.797          71.31          67.12         -4.148         -16.78          39.06         -13.27          24.34          115.7          141.7
   0.02367              -46.23          9.796           71.3          67.11         -4.151         -16.78          39.07         -13.26          24.35          115.7          141.7
   0.02762              -46.23          9.795          71.29           67.1         -4.154         -16.77          39.08         -13.25          24.35          115.7          141.7
   0.03156              -46.23          9.793          71.29           67.1         -4.158         -16.77           39.1         -13.23          24.36          115.7          141.7
   0.03551              -46.23          9.792          71.28          67.09         -4.161         -16.77          39.11         -13.22          24.37          115.7          141.7
   0.03946              -46.23           9.79          71.27          67.08         -4.165         -16.76          39.12          -13.2          24.38          115.7          141.7
    0.0434              -46.23          9.788          71.26          67.08         -4.169         -16.76          39.14         -13.18          24.39          115.7          141.7
   0.04735              -46.22          9.787          71.25          67.07         -4.174         -16.75          39.15         -13.17           24.4          115.8          141.7
   0.05129              -46.22          9.785          71.23          67.06         -4.179         -16.75          39.17         -13.15          24.41          115.8          141.7
   0.05524              -46.22          9.782          71.22          67.05         -4.184         -16.74          39.19         -13.12          24.43          115.8          141.7
   0.05918              -46.22           9.78          71.21          67.04         -4.189         -16.74          39.21          -13.1          24.44          115.8          141.7
   0.06313              -46.21          9.778          71.19          67.03         -4.196         -16.73          39.23         -13.07          24.46          115.8          141.7
   0.06707              -46.21          9.775          71.17          67.02         -4.202         -16.73          39.26         -13.05          24.47          115.8          141.7
   0.07102              -46.21          9.772          71.16           67.0          -4.21         -16.72          39.29         -13.02          24.49          115.8          141.7
   0.07497               -46.2          9.769          71.14          66.99         -4.218         -16.71          39.31         -12.98          24.51          115.8          141.7
   0.07891               -46.2          9.765          71.11          66.97         -4.226          -16.7          39.35         -12.95          24.53          115.8          141.7
